<svg xmlns="http://www.w3.org/2000/svg" xmlns:xlink="http://www.w3.org/1999/xlink" viewBox="0 0 3071 726" fill="none">
<path d="M697.461 221.702C679.182 178.476 653.018 139.648 619.695 106.315C586.349 72.9921 547.512 46.8156 504.307 28.5375C459.554 9.6056 412.007 0 362.999 0C314.001 0 266.457 9.60418 221.702 28.5375C178.476 46.8156 139.648 72.9935 106.314 106.315C72.9921 139.648 46.8156 178.476 28.536 221.702C9.6056 266.457 0 314.003 0 362.999C0 412.006 9.60418 459.553 28.5375 504.307C46.8156 547.512 72.9935 586.349 106.315 619.672C139.648 653.018 178.476 679.182 221.703 697.46C266.458 716.382 314.003 725.997 363.001 725.997C412.009 725.997 459.556 716.382 504.308 697.46C547.514 679.18 586.35 653.016 619.696 619.672C653.019 586.349 679.183 547.511 697.463 504.307C716.384 459.553 726 412.006 726 362.999C725.999 314.003 716.383 266.457 697.461 221.702Z" fill="#934ACC"/>
<path d="M0.144531 373.191C1.38529 418s.587 10.9115 462.656 28.5374 504.307C46.8155 547.512 72.9934 586.349 106.315 619.672C139.648 653.018 178.476 679.182 221.703 697.46C266.458 716.382 314.003 725.997 363.001 725.997C412.008 725.997 459.556 716.382 504.308 697.46C547.514 679.18 586.35 653.016 619.696 619.672C653.019 586.349 679.183 547.511 697.462 504.307C715.1 462.656 724.626 418.587 725.867 373.191H0.144531V373.191Z" fill="#E6E9ED"/>
<path d="M724.27 398.759C725.422 386.927 725.999 375.007 725.999 362.999C725.999 349.506 725.267 336.124 723.828 322.885C705.792 325.666 679.892 329.289 647.258 332.888C585.308 339.723 485.741 347.876 362.999 347.876C240.268 347.876 140.689 339.723 78.752 332.888C46.1066 329.288 20.2166 325.666 2.18232 322.885C0.731693 336.124 0 349.507 0 362.999C0 375.007 0.575712 386.928 1.72855 398.759C60.6185 407.621 190.362 423.483 362.999 423.483C535.636 423.483 665.379 407.621 724.27 398.759Z" fill="#434A54"/>
<path d="M438.639 378.12C438.639 419.893 404.761 453.748 362.999 453.748C321.236 453.748 287.371 419.893 287.371 378.12C287.371 336.355 321.236 302.501 362.999 302.501C404.761 302.503 438.639 336.356 438.639 378.12Z" fill="#E6E9ED"/>
<path d="M363 241.996C287.936 241.996 226.875 303.069 226.875 378.121C226.875 453.174 287.937 514.233 363 514.233C438.062 514.233 499.123 453.172 499.123 378.121C499.123 303.069 438.064 241.996 363 241.996ZM363 438.639C329.645 438.639 302.503 411.476 302.503 378.121C302.503 344.765 329.644 317.624 363 317.624C396.367 317.624 423.484 344.765 423.484 378.121C423.484 411.474 396.367 438.639 363 438.639Z" fill="#434A54"/>
</svg>